<svg xmlns="http://www.w3.org/2000/svg" version="1.0" width="400.8943146667739" height="400.7723571688589" preserveAspectRatio="xMidYMid meet" style=""><rect id="backgroundrect" width="100%" height="100%" x="0" y="0" fill="none" stroke="none"/>
<metadata>
Created by potrace 1.16, written by Peter Selinger 2001-2019
</metadata>

<g class="currentLayer" style=""><title>Layer 1</title><path fill="#000000" fill-opacity="1" stroke="none" stroke-opacity="1" stroke-width="1" stroke-dasharray="none" stroke-linejoin="miter" stroke-linecap="butt" stroke-dashoffset="" fill-rule="nonzero" opacity="1" marker-start="" marker-mid="" marker-end="" d="M1.2926833629608159,200.44716428383856 C1.2926833629608159,90.54732549642247 90.31154323151098,1.5284560786154628 200.21137022972107,1.5284560786154628 C310.11119722793114,1.5284560786154628 399.1300570964813,90.54732549642247 399.1300570964813,200.44716428383856 C399.1300570964813,310.34700307125456 310.11119722793114,399.36587248906164 200.21137022972107,399.36587248906164 C90.31154323151098,399.36587248906164 1.2926833629608159,310.34700307125456 1.2926833629608159,200.44716428383856 z" id="svg_5" class=""/><g transform="translate(0,365) scale(0.10000000149011612,-0.10000000149011612) " fill="#ffffff" stroke="#ffffff" id="svg_1" class="" fill-opacity="1" stroke-opacity="1" stroke-width="80">
<path d="M2332.356129419458,2769.1525955746533 c-0.4567908285704929,-4.212419866908109 -0.4567908285704929,-104.70872240600161 0,-222.6564786794287 l0.4567908285704929,-214.83341321231362 l-291.4325486279741,-1.8053228001034758 l-291.4325486279741,-1.8053228001034758 l-29.691403857081994,-13.840808134126647 c-68.06183345700336,-32.49581040186256 -121.96315122832141,-80.03597747125409 -156.22246337110838,-137.80630707456532 c-21.92595977138363,-37.91177880217299 -28.321031371370527,-52.95613546970195 -40.65438374277382,-95.08033413878306 c-24.209913914236093,-84.85017160486336 -27.407449714229536,-157.0630836090024 -26.03707722851806,-592.7476527006412 c1.3703724857114774,-339.40068641945345 1.8271633142819694,-371.2947225546149 9.135816571409846,-388.1444020222473 c4.567908285704923,-9.628388267218538 8.222234914268862,-21.06209933454055 8.222234914268862,-24.6727449347475 c0,-10.831936800620857 26.95065888565905,-74.62000907094367 45.679082857049224,-108.31936800620856 c34.25931214278692,-60.17742667011586 74.91369588556073,-96.88565693888654 139.32120271400015,-123.96549894043868 c31.51856717136397,-13.840808134126647 35.629684628498396,-13.840808134126647 267.22263471373793,-13.840808134126647 c233.42011339952154,0 235.70406754237402,0 269.50658885659044,13.840808134126647 c40.65438374277382,16.849679467632438 56.642062742741054,26.47806773485097 94.55570151409188,57.168555336610055 c28.321031371370527,22.867422134644027 79.02481334269515,89.66436573847264 79.02481334269515,104.10694813930043 c0,4.212419866908109 1.3703724857114774,8.424839733816219 3.654326628563939,9.628388267218538 c5.024699114275415,3.0088713335057933 17.814842314249198,39.115327335575316 29.23461302851151,83.04484880475988 l10.506189057121322,39.115327335575316 l1.3703724857114774,811.7934857798629 c0.9135816571409848,603.579589501262 0,813.5988085799663 -4.111117457134431,819.616551246978 c-7.308653257127878,11.433711067322013 -118.3088245997575,12.035485334023173 -118.3088245997575,1.2035485334023188 zm-7.765444085698367,-1056.1138380605335 c-1.3703724857114774,-432.67569775813297 -4.111117457134431,-534.3755488306288 -15.074097342826247,-543.4021628311463 c-1.8271633142819694,-1.8053228001034758 -5.024699114275415,-10.230162533919696 -6.851862428557384,-19.256776534437076 c-5.481489942845908,-29.486939068356772 -44.76550119990824,-79.43420320455294 -80.85197665697713,-102.9033996058981 c-18.27163314281969,-12.035485334023173 -37.913638771350854,-22.26564786794287 -42.938337885626275,-22.26564786794287 c-5.024699114275415,0 -11.8765615428328,-3.610645600206951 -15.074097342826247,-7.823065467115062 c-8.222234914268862,-10.831936800620857 -412.93890902772506,-10.831936800620857 -421.61793477056443,0.6017742667011596 c-2.7407449714229544,3.610645600206951 -9.135816571409846,7.221291200413902 -14.160515685685263,7.221291200413902 c-14.160515685685263,0 -47.5062461713312,22.867422134644027 -63.49392517129842,43.929521469184586 c-21.469168942813138,29.486939068356772 -24.666704742806584,34.9029074686672 -30.60498551422298,61.98274947021934 c-3.197535799993446,12.637259600724331 -8.222234914268862,30.08871333505793 -10.962979885691816,37.91177880217299 c-7.765444085698367,20.460325067839392 -7.765444085698367,798.5544519124375 0,819.616551246978 c2.7407449714229544,7.823065467115062 9.592607399980338,27.681616268253293 15.074097342826247,43.32774720248343 c12.790143199973784,35.50468173536836 52.074154457036116,90.26614000517378 74.00011422841976,102.30162533919696 c17.358051485678708,9.628388267218538 80.85197665697713,27.07984200155214 111.00017134262961,30.08871333505793 c10.04939822855083,1.2035485334023188 127.44464117116733,2.4070970668046345 260.3707722851806,3.0088713335057933 l242.09913914236094,1.2035485334023188 l-0.9135816571409848,-455.54311989277704 z" id="svg_2" fill="#ffffff" fill-opacity="1" stroke="#ffffff" stroke-opacity="1" stroke-width="80"/>
<path d="M416.1186035662434,2332.866252216314 c-24.666704742806584,-17.4514537343336 -27.407449714229536,-39.115327335575316 -7.765444085698367,-72.8146862708402 c20.55558728567215,-36.70823026877068 93.18532902838041,-159.47018067580703 105.51868139978372,-179.32873147694528 c6.395071599986892,-10.230162533919696 16.444469828537724,-26.47806773485097 21.92595977138363,-36.10645600206952 c46.592664514190204,-80.03597747125409 58.01243522845252,-99.29275400569117 74.00011422841976,-125.77082174054216 c10.04939822855083,-16.24790520093128 42.02475622848529,-70.40758920403556 70.8025784284263,-120.35485334023171 c29.23461302851151,-49.345489869495 68.06183345700336,-116.1424334733236 86.33346659982305,-147.43469534178385 c18.728423971390182,-31.292261868460248 35.172893799927905,-60.17742667011586 37.00005711420988,-64.38984653702397 c1.8271633142819694,-4.212419866908109 -15.530888171396734,-37.31000453547183 -43.85191954276726,-83.04484880475988 c-26.03707722851806,-42.1241986690811 -51.160572799895135,-83.64662307146105 -56.18527191417055,-92.67323707197842 c-5.024699114275415,-9.02661400051738 -17.358051485678708,-29.486939068356772 -27.407449714229536,-45.734844269288054 c-10.04939822855083,-16.24790520093128 -21.469168942813138,-34.9029074686672 -25.12349557137707,-40.920650135678784 c-3.654326628563939,-6.6195169337127435 -9.135816571409846,-14.442582400827805 -11.419770714262306,-18.655002267735917 c-2.7407449714229544,-3.610645600206951 -15.98767899996723,-25.274519201448662 -29.691403857081994,-48.74371560279384 c-13.703724857114768,-22.867422134644027 -29.23461302851151,-48.74371560279384 -35.172893799927905,-57.168555336610055 c-5.481489942845908,-8.424839733816219 -26.95065888565905,-43.32774720248343 -47.963036999901696,-78.23065467115063 c-21.012378114242644,-34.9029074686672 -59.38280771416399,-97.48743120558768 -84.96309411411157,-139.00985560796764 c-45.222292028478726,-74.62000907094367 -46.592664514190204,-77.0271061377483 -46.592664514190204,-107.11581947280625 c0,-39.71710160227647 5.024699114275415,-42.72597293578226 67.60504262843286,-42.72597293578226 c62.12355268558694,0 46.13587368561972,-17.4514537343336 156.22246337110838,168.4967946763244 c36.086475457068886,61.380975203518176 68.06183345700336,114.33711067322011 70.34578759985581,117.94775627342709 c2.7407449714229544,3.610645600206951 24.666704742806584,39.71710160227647 48.41982782847218,80.63775173795526 c47.5062461713312,80.63775173795526 87.24704825696404,146.8329210750827 99.58040062836731,165.48792334281862 c4.111117457134431,6.6195169337127435 16.901260657108214,27.681616268253293 27.864240542800022,46.938392802690366 c10.962979885691816,18.655002267735917 20.55558728567215,34.301133201966046 21.012378114242644,34.301133201966046 c0.9135816571409848,0 16.444469828537724,-25.274519201448662 34.716102971357415,-55.36323253650659 c18.728423971390182,-30.690487601759088 34.716102971357415,-57.168555336610055 36.086475457068886,-58.973878136713545 c1.3703724857114774,-1.8053228001034758 11.419770714262306,-19.256776534437076 22.839541428524612,-39.115327335575316 c11.419770714262306,-19.858550801138232 21.92595977138363,-37.31000453547183 23.296332257095102,-39.115327335575316 c1.3703724857114774,-1.8053228001034758 21.92595977138363,-35.50468173536836 45.222292028478726,-75.22178333764482 c23.7531230856656,-39.71710160227647 63.49392517129842,-106.51404520610507 89.074211571246,-148.03646960848502 c25.12349557137707,-42.1241986690811 58.926016885593505,-99.29275400569117 75.37048671413123,-127.57614454064563 c16.444469828537724,-27.681616268253293 35.172893799927905,-55.36323253650659 42.02475622848529,-60.77920093681702 c17.358051485678708,-13.840808134126647 100.0371914569378,-13.840808134126647 118.3088245997575,0.6017742667011596 c20.55558728567215,16.24790520093128 18.27163314281969,42.72597293578226 -6.395071599986892,81.84130027135757 c-10.962979885691816,17.4514537343336 -22.839541428524612,37.31000453547183 -26.493868057088548,43.929521469184586 c-8.222234914268862,16.849679467632438 -100.0371914569378,170.90389174312904 -109.17300802834764,183.5411513438534 c-3.654326628563939,5.4159684003104305 -29.23461302851151,48.14194133609269 -57.09885357131154,95.68210840548424 c-64.8642976570099,110.12469080631203 -89.53100239981649,151.64711520869196 -152.1113459139739,255.15228908129126 c-18.728423971390182,30.08871333505793 -37.456847942780364,61.98274947021934 -42.481547057055785,70.40758920403556 l-8.679025742839354,16.24790520093128 l13.703724857114768,22.867422134644027 c7.308653257127878,13.239033867425487 17.358051485678708,30.08871333505793 22.38275059995412,38.51355306887415 c5.024699114275415,8.424839733816219 15.530888171396734,25.87629346814982 22.839541428524612,39.115327335575316 c21.012378114242644,36.70823026877068 29.691403857081994,51.75258693629964 34.716102971357415,58.973878136713545 c2.7407449714229544,4.212419866908109 13.703724857114768,23.469196401345183 25.12349557137707,43.32774720248343 c11.419770714262306,19.858550801138232 21.469168942813138,37.31000453547183 22.839541428524612,39.115327335575316 c1.3703724857114774,1.8053228001034758 11.419770714262306,19.256776534437076 22.839541428524612,39.115327335575316 c11.419770714262306,19.858550801138232 21.469168942813138,37.31000453547183 22.839541428524612,39.115327335575316 c1.3703724857114774,1.8053228001034758 11.419770714262306,19.256776534437076 22.839541428524612,39.115327335575316 c11.419770714262306,19.858550801138232 21.92595977138363,38.51355306887415 24.209913914236093,42.1241986690811 c1.8271633142819694,3.0088713335057933 14.160515685685263,24.070970668046346 27.407449714229536,46.33661853598921 c12.790143199973784,22.26564786794287 34.25931214278692,58.37210387001239 46.592664514190204,80.63775173795526 c12.790143199973784,21.663873601241715 25.12349557137707,42.72597293578226 27.407449714229536,46.938392802690366 c2.7407449714229544,3.610645600206951 13.703724857114768,22.867422134644027 25.12349557137707,42.72597293578226 c26.493868057088548,46.33661853598921 26.03707722851806,45.734844269288054 36.54326628563938,62.584523736920495 c11.8765615428328,18.655002267735917 11.419770714262306,37.31000453547183 -0.4567908285704929,57.168555336610055 c-9.135816571409846,15.044356667528964 -10.506189057121322,15.646130934230124 -61.20997102844596,15.646130934230124 c-28.321031371370527,0 -54.81489942845907,-1.8053228001034758 -58.926016885593505,-3.610645600206951 c-3.654326628563939,-1.8053228001034758 -15.530888171396734,-18.655002267735917 -26.493868057088548,-37.31000453547183 c-10.962979885691816,-19.256776534437076 -21.012378114242644,-35.50468173536836 -22.38275059995412,-37.31000453547183 c-1.3703724857114774,-1.8053228001034758 -11.419770714262306,-19.256776534437076 -22.839541428524612,-39.115327335575316 c-10.962979885691816,-19.858550801138232 -21.92595977138363,-39.115327335575316 -24.666704742806584,-43.32774720248343 c-2.283954142852462,-3.610645600206951 -9.135816571409846,-14.442582400827805 -14.617306514255755,-24.070970668046346 c-15.530888171396734,-27.07984200155214 -37.456847942780364,-64.38984653702397 -41.56796539991479,-71.00936347073672 c-1.8271633142819694,-3.0088713335057933 -12.790143199973784,-22.26564786794287 -23.7531230856656,-42.1241986690811 c-11.419770714262306,-19.858550801138232 -21.469168942813138,-37.31000453547183 -23.296332257095102,-39.115327335575316 c-1.3703724857114774,-1.8053228001034758 -11.419770714262306,-19.256776534437076 -22.839541428524612,-39.115327335575316 c-10.962979885691816,-19.858550801138232 -21.012378114242644,-37.31000453547183 -22.38275059995412,-39.115327335575316 c-1.3703724857114774,-1.8053228001034758 -11.419770714262306,-19.256776534437076 -22.839541428524612,-39.115327335575316 c-11.419770714262306,-19.858550801138232 -22.38275059995412,-39.115327335575316 -25.12349557137707,-43.32774720248343 c-2.283954142852462,-3.610645600206951 -9.135816571409846,-14.442582400827805 -14.617306514255755,-24.070970668046346 c-12.790143199973784,-22.26564786794287 -35.629684628498396,-61.380975203518176 -46.13587368561972,-78.83242893785179 l-7.765444085698367,-13.239033867425487 l-55.728481085600045,94.4785598720819 c-30.60498551422298,52.354361203000806 -73.08653257127877,125.16904747384099 -95.0124923426624,161.2755034759105 c-21.469168942813138,36.70823026877068 -43.85191954276726,74.01823480424251 -49.33340948561317,83.64662307146105 c-5.481489942845908,9.628388267218538 -20.098796457101663,34.301133201966046 -32.88893965707545,54.76145826980543 c-12.333352371403292,20.460325067839392 -45.222292028478726,75.82355760434598 -72.62974174270826,122.76195040703635 c-27.407449714229536,46.938392802690366 -53.9013177713181,87.85904293836917 -58.01243522845252,91.46968853857611 c-13.703724857114768,9.628388267218538 -91.35816571409845,6.017742667011587 -106.88905388549519,-4.814194133609268 z" id="svg_3" fill="#ffffff" fill-opacity="1" stroke="#ffffff" stroke-opacity="1" stroke-width="80"/>
<path d="M2687.282603218731,2320.2289926155895 c-9.592607399980338,-13.840808134126647 -10.962979885691816,-110.12469080631203 -1.8271633142819694,-133.5938872076572 l5.9382807714164,-15.044356667528964 l328.43260574218397,-3.0088713335057933 c288.6918036565511,-3.0088713335057933 332.5437231993183,-4.814194133609268 359.0375912564069,-13.840808134126647 c16.901260657108214,-5.4159684003104305 35.629684628498396,-13.840808134126647 42.481547057055785,-18.655002267735917 c28.321031371370527,-19.256776534437076 58.01243522845252,-67.39871787052975 64.8642976570099,-104.10694813930043 c1.8271633142819694,-9.02661400051738 5.024699114275415,-20.460325067839392 7.765444085698367,-24.070970668046346 c2.283954142852462,-4.212419866908109 5.481489942845908,-37.31000453547183 6.851862428557384,-74.01823480424251 l2.283954142852462,-66.19516933712745 l-253.0621190280527,-0.6017742667011596 c-255.34607317090519,-0.6017742667011596 -305.5930643136593,-3.0088713335057933 -351.2721471707085,-18.655002267735917 c-63.95071599986892,-21.663873601241715 -132.92613111401326,-86.05372013826569 -166.7286524282297,-154.65598654219778 c-10.962979885691816,-22.26564786794287 -21.469168942813138,-48.14194133609269 -22.839541428524612,-56.566781069908906 c-1.8271633142819694,-9.02661400051738 -5.024699114275415,-18.05322800103476 -7.308653257127878,-19.256776534437076 c-1.8271633142819694,-1.8053228001034758 -5.024699114275415,-16.24790520093128 -6.851862428557384,-31.894036135161407 c-1.3703724857114774,-15.646130934230124 -5.024699114275415,-31.894036135161407 -7.308653257127878,-35.50468173536836 c-6.395071599986892,-10.831936800620857 -10.04939822855083,-294.8693906835677 -4.567908285704923,-356.8521401537871 c9.135816571409846,-102.9033996058981 32.43214882850495,-172.70921454323255 78.56802251412466,-234.6919640134519 c33.34573048564594,-44.53129573588574 47.04945534276071,-57.77032960331122 79.93839499983615,-78.23065467115063 c71.25936925699679,-43.32774720248343 74.00011422841976,-43.32774720248343 301.0251560279544,-46.33661853598921 c190.48177551389526,-2.4070970668046345 202.81512788529855,-1.8053228001034758 247.58062908520682,10.230162533919696 c26.03707722851806,6.6195169337127435 52.987736114177096,16.24790520093128 59.83959854273449,21.06209933454055 c7.308653257127878,4.814194133609268 14.617306514255755,9.02661400051738 16.444469828537724,9.02661400051738 c10.962979885691816,0 68.06183345700336,56.566781069908906 86.79025742839352,85.45194587156452 c11.8765615428328,18.05322800103476 21.469168942813138,34.9029074686672 21.469168942813138,36.70823026877068 c0,1.8053228001034758 5.9382807714164,16.849679467632438 13.246934028544274,33.09758466856373 c7.308653257127878,16.24790520093128 14.617306514255755,38.51355306887415 16.444469828537724,49.94726413619616 c1.8271633142819694,11.433711067322013 5.024699114275415,23.469196401345183 6.851862428557384,26.47806773485097 c1.8271633142819694,3.610645600206951 6.395071599986892,28.88516480165561 9.592607399980338,57.168555336610055 c8.679025742839354,69.20404067063325 9.135816571409846,748.6071877762413 0.9135816571409848,822.6254225804837 c-6.395071599986892,55.96500680320774 -16.901260657108214,103.50517387259929 -30.148194685652495,134.19566147435833 c-5.024699114275415,11.433711067322013 -11.8765615428328,27.681616268253293 -15.074097342826247,36.10645600206952 c-8.222234914268862,20.460325067839392 -41.1111745713443,66.19516933712745 -63.95071599986892,89.06259147177148 c-39.74080208563282,39.71710160227647 -97.75323731408534,69.8058149373344 -153.93850922825587,79.43420320455294 c-17.814842314249198,3.0088713335057933 -174.95088734249856,6.017742667011587 -348.5314021992856,6.017742667011587 c-300.1115743708134,0 -316.0992533707806,-0.6017742667011596 -322.9511157993381,-10.831936800620857 zm808.5197665697713,-890.0241404510137 c-1.3703724857114774,-279.2232597493376 -2.7407449714229544,-296.67471348367116 -24.209913914236093,-346.62197761986744 c-19.642005628531166,-46.938392802690366 -48.41982782847218,-71.00936347073672 -100.49398228550828,-84.85017160486336 c-30.148194685652495,-7.823065467115062 -69.43220594271483,-9.628388267218538 -210.58057197099694,-9.628388267218538 c-159.41999917110178,0 -176.77805065678052,1.2035485334023188 -211.95094445670838,12.035485334023173 c-47.04945534276071,15.646130934230124 -64.8642976570099,25.87629346814982 -89.53100239981649,52.354361203000806 c-21.469168942813138,22.867422134644027 -37.456847942780364,54.76145826980543 -50.24699114275414,101.09807680579465 c-7.308653257127878,26.47806773485097 -8.222234914268862,51.15081266959848 -8.222234914268862,196.78018521127885 c0,125.16904747384099 1.3703724857114774,168.4967946763244 5.9382807714164,174.51453734333603 c2.7407449714229544,3.610645600206951 5.481489942845908,11.433711067322013 5.481489942845908,16.849679467632438 c0,13.840808134126647 22.38275059995412,66.7969436038286 37.00005711420988,87.25726867166802 c14.617306514255755,20.460325067839392 46.13587368561972,43.32774720248343 81.76555831411811,58.973878136713545 c3.654326628563939,1.8053228001034758 132.92613111401326,3.610645600206951 286.8646403422691,3.610645600206951 l279.5559870851413,0.6017742667011596 l-1.3703724857114774,-262.97535454840636 z" id="svg_4" fill="#ffffff" fill-opacity="1" stroke="#ffffff" stroke-opacity="1" stroke-width="80"/>
</g></g></svg>